<svg width="236" height="46" viewBox="0 0 236 46" fill="none" xmlns="http://www.w3.org/2000/svg">
<path d="M73.2243 5.23837V10.2614H58.8842V18.9391H73.1215V23.7614H58.8328V36.0421H73.0216V40.9648H53.735V5.23837H73.2243Z" fill="#282828"/>
<path d="M87.767 24.8744C86.8593 23.7068 85.9003 22.5393 84.3846 22.4905C82.6692 22.5422 82.4665 23.8618 82.4665 24.4699C82.4665 25.2301 82.7691 25.9932 84.182 26.8538C85.495 27.614 86.8593 28.073 88.1695 28.8332C91.2493 30.6605 91.9058 33.1476 91.9058 34.668C91.9058 35.2274 91.8059 36.2917 91.1979 37.4592C89.8849 39.9951 87.0591 41.418 84.2819 41.418C83.2715 41.418 80.8995 41.2143 78.7788 39.235C77.8711 38.3715 77.3145 37.4592 76.658 36.4437L80.5456 34.6164C81.7073 35.9876 82.9175 37.356 84.7357 37.356C86.9079 37.356 87.513 35.6319 87.513 34.8688C87.513 34.3094 87.2618 33.8533 87.2104 33.7013C86.7052 32.7374 86.1001 32.4821 84.2819 31.7219C82.9175 31.1625 82.261 30.8584 81.7073 30.5027C78.7274 28.7787 78.0709 26.3919 78.0709 24.8199C78.0709 24.3121 78.1223 23.4487 78.5761 22.3844C79.6864 19.9489 82.3124 18.5289 84.9384 18.5289C86.1001 18.5289 88.2209 18.7813 90.0876 21.016C90.5414 21.4722 90.7955 21.8795 91.4519 22.895L87.767 24.8744Z" fill="#282828"/>
<path d="M97.8656 19.0395V11.7818H102.51V18.9879H106.246V23.1991H102.458L102.256 40.959H97.8114V23.1991H95.4394V19.0367H97.8656V19.0395Z" fill="#282828"/>
<path d="M108.521 9.85405C108.521 8.02671 110.036 6.55508 111.852 6.55508C113.667 6.55508 115.134 8.02671 115.134 9.85405C115.134 11.6814 113.619 13.2018 111.803 13.2018C110.59 13.1502 109.782 12.4904 109.48 12.1863C109.177 11.8851 108.521 11.0732 108.521 9.85405ZM114.024 18.9879V40.9103H109.329V18.9879H114.024Z" fill="#282828"/>
<path d="M124.728 18.9879V21.2713C125.838 20.0522 126.9 18.5805 130.282 18.5805C130.636 18.5805 131.495 18.5805 132.454 18.833C133.819 19.1371 134.626 19.5932 136.493 21.5238C136.947 20.9644 137.201 20.5599 137.755 20.1526C138.411 19.5444 140.127 18.5805 142.501 18.5805C143.007 18.5805 143.966 18.6322 145.227 18.9879C146.086 19.2403 148.359 19.7997 149.366 22.4389C149.669 23.3024 149.771 24.0109 149.871 25.8383V41.0107H145.176V28.4258C145.125 26.4981 144.973 25.583 144.519 24.7711C143.763 23.2995 142.55 23.1991 141.893 23.1991C141.388 23.1991 140.278 23.2995 139.216 23.9593C137.398 25.1785 137.349 26.9542 137.247 29.1344V40.959H132.5V28.1246C132.5 26.4005 132.5 24.9289 131.036 23.9134C130.733 23.7614 129.925 23.2536 128.864 23.2536C128.358 23.2536 127.348 23.354 126.289 24.1658C124.573 25.4854 124.522 27.3615 124.522 29.4442V40.9648H119.927V18.9908H124.728V18.9879Z" fill="#282828"/>
<path d="M171.433 19.0912H176.18V41.0135H171.433V38.1707C170.928 38.6268 170.474 39.0341 169.969 39.4386C169.109 40.1501 167.445 41.4696 164.465 41.4696C163.406 41.4696 161.286 41.266 159.062 39.6423C155.023 36.699 154.769 31.6244 154.769 30.0523C154.769 29.3409 154.821 27.5136 155.526 25.5858C156.939 21.5783 160.626 18.5318 164.916 18.5318C167.794 18.5318 169.361 19.7997 171.43 21.6271V19.0912H171.433ZM160.124 33.4001C161.437 36.5958 164.163 37.0548 165.576 37.0548C166.737 37.0548 167.899 36.7507 168.858 36.1425C171.735 34.3668 171.838 30.8642 171.838 29.7999C171.838 28.9364 171.738 26.4005 169.92 24.6248C168.404 23.1532 166.638 22.9495 165.83 22.9495C165.325 22.9495 164.366 23.0012 163.152 23.6093C159.973 25.233 159.619 28.6324 159.567 29.7483C159.516 30.3564 159.516 31.828 160.124 33.4001Z" fill="#282828"/>
<path d="M183.047 19.0395V11.7818H187.691V18.9879H191.427V23.1991H187.64L187.437 40.959H182.993V23.1991H180.621V19.0367H183.047V19.0395Z" fill="#282828"/>
<path d="M195.064 24.8256C197.085 20.6632 201.123 18.4314 205.616 18.4314C206.929 18.4314 210.411 18.635 213.34 21.1222C215.763 23.2536 217.228 26.6013 217.228 29.9519C217.228 32.2354 216.52 33.9107 216.169 34.6709C214.25 38.9854 210.16 41.5213 205.516 41.5213C201.577 41.5213 198.903 39.6452 197.841 38.7301C195.115 36.3462 193.651 32.4878 193.953 28.836C194.005 28.1246 194.256 26.5497 195.064 24.8256ZM198.851 31.9801C199.711 34.975 202.536 37.0031 205.568 37.0031C206.124 37.0031 207.235 36.9027 208.445 36.3433C210.868 35.2791 212.584 32.7919 212.584 30.2044C212.584 29.6966 212.532 28.6811 212.027 27.4648C210.865 24.774 208.442 22.8462 205.565 22.8462C202.182 22.8462 199.302 25.3334 198.697 28.6811C198.597 29.1889 198.446 30.5085 198.851 31.9801Z" fill="#282828"/>
<path d="M226.724 21.475C227.432 20.6632 228.996 18.5318 231.976 18.5318C233.491 18.5318 235.561 19.1916 235.863 19.292L233.842 23.9105C233.489 23.7585 232.278 22.895 230.863 22.895C230.457 22.9466 229.498 22.9467 228.591 23.6552C227.075 24.8744 226.875 27.1579 226.724 28.9823V40.9074H222.18V18.985H226.724V21.475Z" fill="#282828"/>
<path d="M41.3015 45.7268H3.6017C1.71785 45.7268 0.176514 44.1777 0.176514 42.2844V4.39498C0.176514 2.50166 1.71785 0.952576 3.6017 0.952576H41.3044C43.1882 0.952576 44.7296 2.50166 44.7296 4.39498V42.2872C44.7267 44.1777 43.1854 45.7268 41.3015 45.7268Z" fill="#FD7744"/>
<path d="M44.7895 13.8673L24.6409 27.5136L21.4554 24.1142V0.952576H41.3615C43.2453 0.952576 44.7866 2.50166 44.7866 4.39498V13.8673H44.7895Z" fill="#215EF8"/>
<path d="M0.0651855 30.5974L17.0227 19.533L21.4555 25.5973V45.81H3.49037C1.60652 45.81 0.0651855 44.2609 0.0651855 42.3676V30.5974Z" fill="#215EF8"/>
<path d="M17.5936 21.3746L23.0054 26.5009L23.7475 25.5945L18.1445 20.2386L17.5936 21.3746Z" fill="white"/>
<path d="M17.0456 21.9111C18.1301 21.9111 19.0093 21.0364 19.0093 19.9575C19.0093 18.8786 18.1301 18.0039 17.0456 18.0039C15.961 18.0039 15.0818 18.8786 15.0818 19.9575C15.0818 21.0364 15.961 21.9111 17.0456 21.9111Z" fill="white"/>
<path d="M24.6409 28.8073C25.7255 28.8073 26.6047 27.9327 26.6047 26.8538C26.6047 25.7748 25.7255 24.9002 24.6409 24.9002C23.5563 24.9002 22.6771 25.7748 22.6771 26.8538C22.6771 27.9327 23.5563 28.8073 24.6409 28.8073Z" fill="white"/>
<path d="M16.7088 20.2817L0.0366821 31.2314V30.0466L16.1151 19.3838L16.7088 20.2817Z" fill="white"/>
<path d="M44.7267 13.8673L25.8397 27.0488V25.5399L44.7267 12.5621V13.8673Z" fill="white"/>
<path d="M27.4581 34.0427C27.5209 33.9394 27.6179 33.9107 27.7321 33.9021C28.0718 33.8734 28.4114 33.839 28.7169 33.8103C28.9138 33.3427 29.0993 32.8981 29.2991 32.4276C29.1136 32.2038 28.9052 31.9485 28.694 31.6932C28.5199 31.4838 28.5228 31.4408 28.7169 31.2457C29.0679 30.8929 29.419 30.54 29.773 30.1872C29.91 30.0495 29.9842 30.0466 30.1326 30.17C30.3752 30.3708 30.6178 30.5716 30.8547 30.7781C30.9147 30.8298 30.9575 30.8326 31.026 30.7896C31.3885 30.5687 31.7795 30.4052 32.1906 30.299C32.2591 30.2818 32.2848 30.2503 32.2905 30.1814C32.319 29.8601 32.3504 29.536 32.3847 29.2147C32.4046 29.0311 32.4589 28.9852 32.6387 28.9852C33.1667 28.9852 33.6948 28.9852 34.2228 28.9852C34.3941 28.9852 34.454 29.0426 34.4683 29.209C34.4997 29.536 34.5282 29.8601 34.5654 30.1872C34.5682 30.2216 34.6053 30.2732 34.6367 30.2818C35.0848 30.4052 35.5073 30.5888 35.9126 30.8355C36.0953 30.6835 36.2808 30.5285 36.4663 30.3765C36.5634 30.2962 36.6576 30.2159 36.7518 30.1384C36.8545 30.0552 36.9487 30.0552 37.0429 30.1499C37.4282 30.54 37.8136 30.9302 38.1989 31.3232C38.2902 31.4178 38.2931 31.5068 38.2046 31.6158C38.002 31.8653 37.7936 32.1149 37.5881 32.3645C37.5624 32.3932 37.5396 32.4247 37.5139 32.4592C37.7593 32.8636 37.942 33.2911 38.0676 33.7443C38.0762 33.773 38.1218 33.8046 38.1532 33.8103C38.4701 33.8447 38.7869 33.8763 39.1037 33.905C39.3292 33.925 39.3806 33.9767 39.3806 34.2033C39.3806 34.7139 39.3806 35.2246 39.3806 35.7352C39.3806 35.9245 39.3235 35.9848 39.1351 36.0048C38.8154 36.0364 38.4958 36.0679 38.1732 36.0966C38.1133 36.1024 38.0876 36.1196 38.0705 36.1798C37.9563 36.6044 37.7907 37.006 37.5652 37.3789C37.5281 37.4392 37.5424 37.4736 37.5824 37.5224C37.7907 37.7691 37.9934 38.0186 38.1989 38.2682C38.3102 38.4059 38.3074 38.4862 38.1818 38.6125C37.8107 38.9854 37.4397 39.3554 37.0686 39.7284C36.9401 39.8546 36.8631 39.8575 36.7261 39.7456C36.4777 39.539 36.2294 39.3354 35.984 39.1231C35.9297 39.0772 35.8926 39.0743 35.8327 39.1116C35.4702 39.3325 35.0791 39.496 34.6681 39.605C34.5853 39.6251 34.5596 39.6624 34.5539 39.7456C34.5283 40.0726 34.494 40.3968 34.4626 40.7238C34.4483 40.8529 34.3798 40.9189 34.2457 40.9189C33.6976 40.9189 33.1525 40.9189 32.6044 40.9189C32.4646 40.9189 32.3989 40.8615 32.3847 40.7181C32.3504 40.3996 32.319 40.0812 32.2933 39.7628C32.2848 39.671 32.2534 39.6251 32.1563 39.5993C31.7567 39.4931 31.3799 39.3325 31.026 39.1173C30.9518 39.0714 30.909 39.0829 30.8462 39.1374C30.6093 39.3411 30.3695 39.5362 30.1297 39.737C29.9813 39.8603 29.9043 39.8603 29.7701 39.7255C29.4019 39.3554 29.0337 38.9882 28.6655 38.6182C28.5342 38.4862 28.5313 38.4116 28.6484 38.2653C28.871 37.9957 29.0936 37.726 29.3163 37.4535C29.0679 37.0462 28.8853 36.6187 28.7625 36.1655C28.754 36.1368 28.7083 36.1052 28.6769 36.0995C28.3601 36.0651 28.0432 36.0335 27.7264 36.0048C27.6122 35.9962 27.5152 35.9675 27.4524 35.8643C27.4581 35.259 27.4581 34.6508 27.4581 34.0427ZM36.8631 30.5544C36.6176 30.7609 36.3636 30.9703 36.1095 31.1826C35.9697 31.3002 35.9183 31.306 35.767 31.2084C35.3531 30.9474 34.9107 30.758 34.4341 30.6433C34.2257 30.5945 34.2029 30.5572 34.1829 30.3421C34.1543 30.0237 34.1229 29.7081 34.0915 29.3868C34.0516 29.3839 34.023 29.3811 33.9916 29.3811C33.6149 29.3811 33.2381 29.3839 32.8613 29.3782C32.7671 29.3753 32.7443 29.4126 32.7386 29.4987C32.7129 29.8056 32.6786 30.1126 32.653 30.4167C32.6415 30.54 32.5788 30.6031 32.4617 30.6289C31.9565 30.7408 31.4884 30.9388 31.0545 31.2228C30.9489 31.2916 30.8547 31.283 30.7605 31.2027C30.5322 31.0076 30.301 30.8183 30.0727 30.6261C30.0384 30.5974 30.0013 30.5716 29.987 30.5572C29.6673 30.8814 29.3591 31.1912 29.048 31.5068C29.2535 31.7563 29.4647 32.0174 29.6845 32.2756C29.7644 32.3702 29.7815 32.4649 29.7102 32.5739C29.4276 33.0128 29.2278 33.4861 29.1108 33.9968C29.0851 34.1086 29.0166 34.1718 28.8995 34.1804C28.811 34.1861 28.7226 34.1976 28.6341 34.2062C28.3772 34.232 28.1203 34.2578 27.8577 34.2836C27.8577 34.734 27.8577 35.1758 27.8577 35.6233C28.2002 35.6577 28.5342 35.6893 28.871 35.7237C29.0365 35.7409 29.0822 35.7753 29.1222 35.9446C29.2278 36.3864 29.3905 36.8081 29.6274 37.1953C29.8043 37.4851 29.8215 37.4736 29.5817 37.7576C29.3962 37.9785 29.2164 38.1994 29.048 38.403C29.3648 38.7243 29.6731 39.037 29.987 39.3554C30.2411 39.1432 30.5065 38.9251 30.7663 38.7043C30.8576 38.6268 30.9489 38.6096 31.0517 38.6756C31.4913 38.9624 31.9679 39.1604 32.4788 39.278C32.5873 39.3038 32.6444 39.364 32.6558 39.4788C32.6844 39.7857 32.7186 40.0898 32.7443 40.3968C32.7529 40.4914 32.7728 40.5345 32.8785 40.5287C33.0925 40.5201 33.3037 40.5259 33.5178 40.5259C33.7062 40.5259 33.8974 40.5259 34.0887 40.5259C34.0944 40.4972 34.0972 40.4771 34.1001 40.4599C34.1315 40.1501 34.1629 39.8402 34.1914 39.5304C34.2029 39.4128 34.2314 39.3124 34.3627 39.2837C34.8822 39.169 35.3674 38.9653 35.8127 38.6727C35.9012 38.6153 35.9868 38.6182 36.0696 38.687C36.1352 38.7415 36.2009 38.796 36.2665 38.8506C36.472 39.0198 36.6776 39.1919 36.8774 39.3583C37.1942 39.037 37.5053 38.7272 37.8164 38.4116C37.7993 38.3916 37.7793 38.3629 37.7565 38.3371C37.5624 38.099 37.3654 37.8609 37.1685 37.6256C37.0971 37.5396 37.0714 37.4506 37.1371 37.3502C37.4254 36.8999 37.628 36.4151 37.7508 35.8958C37.7765 35.7926 37.8421 35.738 37.9477 35.7294C38.1247 35.7122 38.3017 35.6979 38.4815 35.6807C38.6499 35.6635 38.8183 35.6462 38.9838 35.629C38.9838 35.1758 38.9838 34.7311 38.9838 34.2865C38.6356 34.2521 38.2959 34.2205 37.9563 34.1861C37.8193 34.1718 37.7622 34.1287 37.7308 33.9939C37.6138 33.489 37.4197 33.0157 37.1342 32.5825C37.0629 32.4764 37.0743 32.3817 37.1571 32.287C37.3426 32.0662 37.5253 31.8453 37.708 31.6215C37.7451 31.5785 37.7793 31.5326 37.8193 31.4809C37.4939 31.1683 37.1828 30.867 36.8631 30.5544Z" fill="white" stroke="#FCFCFC" stroke-width="0.5" stroke-miterlimit="10"/>
<path d="M33.4179 37.1294C34.6128 37.1294 35.5815 36.1558 35.5815 34.9549C35.5815 33.754 34.6128 32.7805 33.4179 32.7805C32.223 32.7805 31.2543 33.754 31.2543 34.9549C31.2543 36.1558 32.223 37.1294 33.4179 37.1294Z" stroke="#FCFCFC" stroke-miterlimit="10"/>
<path d="M10.3636 16C7.40826 16 5.00413 13.5838 5.0069 10.6164C5.00967 7.62954 7.41103 5.23837 10.4023 5.23837C13.3244 5.23837 15.7258 7.67408 15.7202 10.6275C15.7119 13.5921 13.3133 16 10.3636 16ZM5.91814 11.2622C6.01231 12.1363 6.49425 13.2887 7.5329 14.1322C8.2558 14.7167 9.08118 15.0508 10.0257 15.1259C10.0257 14.8559 10.0257 14.6026 10.0257 14.3465C10.2555 14.3465 10.4744 14.3465 10.707 14.3465C10.707 14.611 10.707 14.8671 10.707 15.1231C12.9616 14.9533 14.5957 13.13 14.8062 11.2594C14.5597 11.2594 14.316 11.2594 14.0667 11.2594C14.0667 11.0256 14.0667 10.8029 14.0667 10.5691C14.3354 10.5691 14.5957 10.5691 14.8561 10.5691C14.8699 8.2837 13.017 6.26276 10.7015 6.11244C10.7015 6.37132 10.7015 6.62742 10.7015 6.88352C10.4688 6.88352 10.25 6.88352 10.0146 6.88352C10.0146 6.62185 10.0146 6.36576 10.0146 6.10688C7.36394 6.32122 5.79073 8.68176 5.87937 10.5719C6.1508 10.5719 6.42223 10.5719 6.69921 10.5719C6.69921 10.8057 6.69921 11.0284 6.69921 11.2594C6.43331 11.2622 6.17573 11.2622 5.91814 11.2622Z" fill="white" stroke="white" stroke-width="0.5" stroke-miterlimit="10"/>
<path d="M9.95365 9.57811C9.95365 9.07149 9.95365 8.56208 9.95365 8.05545C9.95365 7.80214 10.0534 7.65739 10.2528 7.6045C10.4771 7.54604 10.707 7.70193 10.7319 7.93297C10.7375 7.98029 10.7375 8.02483 10.7375 8.07215C10.7375 8.99911 10.7403 9.92329 10.7347 10.8502C10.7347 10.9393 10.7596 10.9894 10.8372 11.0312C11.2776 11.2761 11.718 11.5267 12.1556 11.7772C12.3107 11.8663 12.3938 11.9971 12.3716 12.1781C12.3522 12.3367 12.2636 12.462 12.1085 12.4982C12.0143 12.5204 11.8897 12.5204 11.8094 12.4759C11.2499 12.1725 10.6987 11.8551 10.1475 11.5378C9.99243 11.4487 9.95088 11.3012 9.95088 11.1314C9.95642 10.6164 9.95365 10.0987 9.95365 9.57811Z" fill="white" stroke="white" stroke-width="0.5" stroke-miterlimit="10"/>
<path d="M11.4062 4H9V5.17329H11.4062V4Z" fill="white"/>
<path d="M15.1389 28.4201C15.1389 30.1384 15.1389 39.2206 15.1389 40.9389C14.3197 40.9389 14.2398 40.9389 13.4091 40.9389C13.4091 39.2321 13.4091 30.1413 13.4091 28.4201C14.2312 28.4201 14.3054 28.4201 15.1389 28.4201Z" fill="white"/>
<path d="M10.8203 30.8498C11.6509 30.8498 11.7251 30.8498 12.55 30.8498C12.55 32.0461 12.55 39.7513 12.55 40.9475C11.7251 40.9475 11.648 40.9475 10.8203 40.9475C10.8203 39.757 10.8203 32.0518 10.8203 30.8498Z" fill="white"/>
<path d="M9.9497 34.0226C9.9497 34.8315 9.9497 40.1357 9.9497 40.9447C9.13336 40.9447 9.06771 40.9447 8.24567 40.9447C8.24567 40.1443 8.24567 34.8344 8.24567 34.0226C9.05629 34.0226 9.12194 34.0226 9.9497 34.0226Z" fill="white"/>
<path d="M7.3637 37.0232C7.3637 37.6486 7.3637 40.3193 7.3637 40.9447C6.54736 40.9447 6.48171 40.9447 5.65967 40.9447C5.65967 40.3251 5.65967 37.6515 5.65967 37.0232C6.47029 37.0232 6.53594 37.0232 7.3637 37.0232Z" fill="white"/>
<path d="M27.6151 7.21488C27.6265 7.00547 27.6322 6.73582 27.6551 6.46903C27.6893 6.08176 27.9519 5.84366 28.3401 5.83219C28.8653 5.81497 29.3848 5.76621 29.8986 5.64572C30.6321 5.4736 31.3229 5.1896 31.9651 4.79086C32.0393 4.74496 32.1135 4.69906 32.1906 4.65029C32.4418 4.49252 32.6929 4.48965 32.9441 4.65029C33.3266 4.897 33.7234 5.11502 34.1429 5.29001C34.9707 5.63425 35.8327 5.81784 36.729 5.82932C37.1971 5.83505 37.4625 6.0961 37.4911 6.56657C37.5424 7.45585 37.4882 8.3394 37.3227 9.21721C36.9858 10.9958 36.2294 12.5563 34.9536 13.8501C34.3456 14.4669 33.6406 14.9459 32.8614 15.316C32.6473 15.4164 32.4418 15.3963 32.2334 15.2959C31.2201 14.8054 30.3553 14.1255 29.6417 13.2477C28.871 12.301 28.343 11.2282 28.0119 10.0577C27.7493 9.1455 27.6294 8.21605 27.6151 7.21488ZM28.3116 6.5264C28.3087 6.55509 28.3059 6.57804 28.303 6.59812C28.2602 7.27513 28.2887 7.9464 28.3829 8.61766C28.577 10.009 29.0508 11.2913 29.8643 12.4387C30.5436 13.3969 31.4085 14.1341 32.4589 14.6505C32.5331 14.6878 32.5959 14.6849 32.6701 14.6505C33.9317 14.0337 34.905 13.1043 35.6186 11.8994C36.5834 10.2729 36.9202 8.50005 36.8317 6.62968C36.826 6.53788 36.7975 6.50919 36.7061 6.50919C36.1866 6.50345 35.6757 6.44034 35.1705 6.32847C34.2799 6.12766 33.4522 5.78055 32.6844 5.2814C32.5988 5.22403 32.5331 5.2269 32.4446 5.2814C32.1963 5.43344 31.9451 5.58261 31.6825 5.71457C30.8576 6.12766 29.9842 6.38297 29.0623 6.46903C28.8168 6.49198 28.5685 6.50632 28.3116 6.5264Z" fill="white" stroke="#FCFCFC" stroke-width="0.5" stroke-miterlimit="10"/>
<path d="M31.9137 10.8007C32.3076 10.3934 32.7015 9.98602 33.0954 9.57867C33.4807 9.17993 33.8632 8.78118 34.2485 8.38244C34.2628 8.3681 34.2771 8.35088 34.2942 8.33654C34.4455 8.19597 34.6396 8.18737 34.768 8.31359C34.905 8.45129 34.9108 8.65496 34.768 8.807C34.5226 9.06805 34.2714 9.32623 34.0202 9.58441C33.4265 10.2012 32.83 10.8179 32.2334 11.4347C32.2049 11.4663 32.1735 11.4949 32.1421 11.5236C31.9794 11.6671 31.8281 11.6699 31.674 11.5179C31.4713 11.3228 31.2772 11.1163 31.0803 10.9126C30.8519 10.6774 30.6236 10.4421 30.3952 10.2069C30.2525 10.0577 30.2211 9.87702 30.3153 9.73645C30.438 9.54999 30.6664 9.52991 30.8319 9.69629C31.1231 9.99176 31.4114 10.293 31.7025 10.5913C31.7653 10.663 31.8367 10.7261 31.9137 10.8007Z" fill="white" stroke="#FCFCFC" stroke-width="0.5" stroke-miterlimit="10"/>
</svg>
