<svg width="253" height="111" viewBox="0 0 253 111" fill="none" xmlns="http://www.w3.org/2000/svg">
<path d="M140.289 13.7977C131.436 13.7977 122.582 13.8058 113.729 13.7856C113.106 13.7856 112.682 13.9796 112.253 14.4081C107.592 19.0936 102.915 23.7629 98.2373 28.4362C98.0069 28.6667 97.6794 28.8082 97.4975 29.0629C97.3358 29.2852 97.2913 29.6086 97.2428 29.8916C97.1943 30.1827 97.255 30.5021 97.1741 30.785C96.6688 32.5477 94.8576 33.5988 93.0789 33.1864C91.3163 32.7821 90.1358 31.068 90.4107 29.3175C90.7139 27.4054 92.2865 26.144 94.2432 26.3623C94.7808 26.423 95.0598 26.237 95.3872 25.9096C103.828 17.4563 112.282 9.01519 120.715 0.557891C121.115 0.157665 121.511 0 122.073 0C137.039 0.0161707 152.009 0.0121283 166.975 0.0121283C167.909 0.0121283 167.909 0.0121281 167.909 0.913647C167.909 4.95229 167.897 8.98689 167.925 13.0255C167.929 13.6521 167.763 13.8179 167.137 13.8179C158.186 13.7896 149.236 13.7977 140.289 13.7977ZM91.2677 29.7299C91.2435 31.1893 92.3714 32.3779 93.8025 32.4021C95.2053 32.4264 96.402 31.2863 96.4343 29.8916C96.4707 28.4039 95.3064 27.1749 93.8591 27.1709C92.4725 27.1628 91.288 28.3311 91.2677 29.7299Z" fill="#215EF8"/>
<path d="M138.878 15.3177C143.487 15.3177 148.011 15.3177 152.623 15.3177C152.636 15.5563 152.656 15.8029 152.656 16.0495C152.652 27.2396 152.64 38.4257 152.652 49.6159C152.652 50.097 152.466 50.3961 152.155 50.7115C145.755 57.0989 139.368 63.4944 132.968 69.8819C132.636 70.2134 132.515 70.4721 132.697 70.9693C133.243 72.4651 132.657 74.0822 131.355 74.9433C130.033 75.8165 128.262 75.6912 127.09 74.6401C125.93 73.5971 125.61 71.8992 126.306 70.5004C127.005 69.0976 128.525 68.3335 130.086 68.6691C130.591 68.7782 130.898 68.6529 131.25 68.2971C133.603 65.9119 135.972 63.5389 138.361 61.1861C138.745 60.806 138.89 60.4179 138.89 59.8803C138.878 45.363 138.882 30.8457 138.882 16.3284C138.878 16.001 138.878 15.6775 138.878 15.3177ZM129.427 74.6361C130.878 74.632 132.026 73.4799 132.014 72.0285C132.002 70.6095 130.87 69.4816 129.447 69.4735C127.979 69.4655 126.831 70.5893 126.827 72.0447C126.819 73.492 127.971 74.6401 129.427 74.6361Z" fill="#215EF8"/>
<path d="M154.119 15.3177C158.744 15.3177 163.288 15.3177 167.909 15.3177C167.909 15.6088 167.909 15.8635 167.909 16.1142C167.909 26.0753 167.905 36.0406 167.921 46.0017C167.921 46.5232 167.751 46.8749 167.391 47.2307C159.803 54.8027 152.227 62.3827 144.643 69.9546C144.304 70.2942 144.142 70.6136 144.154 71.1149C144.199 73.1564 142.691 74.628 140.637 74.6158C138.721 74.6037 137.205 73.0432 137.233 71.1068C137.261 69.1704 138.854 67.6301 140.823 67.7069C141.344 67.7271 141.688 67.5856 142.048 67.2218C145.876 63.3691 149.713 59.5286 153.565 55.7042C153.966 55.308 154.131 54.9158 154.131 54.3499C154.115 41.6478 154.119 28.9456 154.119 16.2476C154.119 15.9484 154.119 15.6492 154.119 15.3177ZM140.722 73.779C142.133 73.775 143.333 72.5581 143.317 71.1432C143.301 69.7565 142.125 68.5801 140.734 68.5639C139.303 68.5478 138.09 69.7444 138.098 71.1674C138.11 72.5985 139.303 73.7831 140.722 73.779Z" fill="#215EF8"/>
<path d="M137.35 15.3056C137.35 19.89 137.35 24.4097 137.35 29.0386C136.99 29.0386 136.671 29.0386 136.348 29.0386C127.308 29.0386 118.273 29.0427 109.233 29.0265C108.643 29.0265 108.227 29.1922 107.81 29.6127C104.487 32.9641 101.148 36.2993 97.8006 39.6264C97.4449 39.9781 97.2711 40.3217 97.2791 40.8473C97.3115 42.8161 95.8116 44.2997 93.855 44.2997C91.9185 44.2997 90.3783 42.7878 90.3661 40.8675C90.354 38.923 91.9064 37.3504 93.8712 37.3908C94.4371 37.4029 94.8212 37.2412 95.2174 36.841C102.231 29.8027 109.258 22.7805 116.292 15.7665C116.53 15.528 116.914 15.2975 117.234 15.2975C123.795 15.2692 130.356 15.2773 136.914 15.2773C137.035 15.2814 137.152 15.2935 137.35 15.3056ZM96.4383 40.8513C96.4423 39.4121 95.2618 38.2276 93.8348 38.2398C92.4279 38.2479 91.2798 39.396 91.2677 40.8069C91.2515 42.2622 92.3956 43.4427 93.8267 43.4508C95.2618 43.4589 96.4342 42.2905 96.4383 40.8513Z" fill="#215EF8"/>
<path d="M8.4007 83.5098V85.6928H2.58732V89.4646H8.36027V91.5628H2.56711V96.9032H8.31985V99.0418H0.497253V83.5098H8.4007Z" fill="#383838"/>
<path d="M18.2851 94.6514L23.2778 82.4506L26.1441 99.1105L24.0378 99.0903C23.8114 97.6349 23.6093 96.1755 23.3425 94.7444C23.1363 93.6205 22.9342 92.4926 22.7886 91.3687C22.6876 90.5521 22.6269 89.7153 22.5622 88.8744L18.184 99.8867L14.0484 88.9633C13.9675 89.8891 13.8826 90.7947 13.7411 91.7002C13.5551 92.9373 13.2924 94.1703 13.066 95.4276C12.8396 96.6404 12.6172 97.8532 12.4111 99.07H10.325L13.4985 82.3455L18.2851 94.6514Z" fill="#383838"/>
<path d="M36.9704 83.5098V85.6928H31.157V89.4646H36.9299V91.5628H31.1368V96.9032H36.8895V99.0418H29.071V83.5098H36.9704Z" fill="#383838"/>
<path d="M47.3843 99.0417L42.9818 92.3996H42.1005V99.0619H40.0751V83.4855H44.2917C45.2943 83.5502 46.2564 83.6189 47.0326 84.2576C48.0756 85.0743 48.5284 86.4851 48.5284 87.8314C48.5284 88.4944 48.4071 90.5683 46.7254 91.6921C46.3979 91.9145 46.1311 92.0236 45.4155 92.2419C46.0907 93.2809 46.7456 94.3158 47.4409 95.3305C47.9543 96.1027 48.4839 96.8546 48.9974 97.6268C49.3046 98.0917 49.5916 98.5768 49.8787 99.0377H47.3843V99.0417ZM42.145 85.6281V90.5036H43.7621C44.7444 90.4146 45.4802 90.3055 45.9936 89.4242C46.1351 89.1816 46.4019 88.652 46.4019 87.8354C46.4019 87.5726 46.3615 86.5983 45.7066 86.093C45.2377 85.717 44.6838 85.6726 44.1502 85.6281H42.145Z" fill="#383838"/>
<path d="M62.981 87.8112C62.7142 87.5241 62.4474 87.2371 62.1846 86.9743C61.6914 86.5094 60.3816 85.3209 58.4168 85.3209C57.7821 85.3209 56.4723 85.4543 55.1624 86.6226C53.2988 88.2559 53.1168 90.4632 53.1168 91.3243C53.1168 94.5463 55.3484 97.2144 58.3764 97.2144C58.9707 97.2144 60.3816 97.1053 61.6307 95.848C62.0997 95.3629 62.4716 94.7888 62.694 94.1258C62.8153 93.8186 62.8557 93.6165 62.9204 93.002H59.3183V90.8189L65.2328 90.8391C65.2328 91.1706 65.2732 91.9873 65.1317 92.913C65.0306 93.665 64.683 95.4518 63.3085 97.0851C62.5525 97.9664 61.0769 99.3126 58.3157 99.3126C57.4749 99.3126 55.2676 99.1792 53.4645 97.461C51.8879 95.937 51.0308 93.665 51.0308 91.3485C51.0308 90.3783 51.1723 88.1952 52.6883 86.1415C54.6733 83.4936 57.3738 83.2065 58.4815 83.2065C59.4234 83.2065 61.2871 83.3844 63.1912 85.0177C63.6197 85.3694 63.9876 85.7898 64.3798 86.2103L62.981 87.8112Z" fill="#383838"/>
<path d="M75.7721 83.5098V85.6928H69.9587V89.4646H75.7316V91.5628H69.9385V96.9032H75.6912V99.0418H67.8727V83.5098H75.7721Z" fill="#383838"/>
<path d="M86.186 99.0417L81.7835 92.3996H80.9022V99.0619H78.8768V83.4855H83.0933C84.0959 83.5502 85.0581 83.6189 85.8343 84.2576C86.8773 85.0743 87.3301 86.4851 87.3301 87.8314C87.3301 88.4944 87.2088 90.5683 85.527 91.6921C85.1996 91.9145 84.9328 92.0236 84.2172 92.2419C84.8923 93.2809 85.5473 94.3158 86.2426 95.3305C86.756 96.1027 87.2856 96.8546 87.799 97.6268C88.1063 98.0917 88.3933 98.5768 88.6803 99.0377H86.186V99.0417ZM80.9467 85.6281V90.5036H82.5638C83.5461 90.4146 84.2819 90.3055 84.7953 89.4242C84.9368 89.1816 85.2036 88.652 85.2036 87.8354C85.2036 87.5726 85.1632 86.5983 84.5083 86.093C84.0393 85.717 83.4855 85.6726 82.9519 85.6281H80.9467Z" fill="#383838"/>
<path d="M98.7951 83.5098V85.6928H92.9818V89.4646H98.7547V91.5628H92.9616V96.9032H98.7143V99.0418H90.8957V83.5098H98.7951Z" fill="#383838"/>
<path d="M114.226 83.5098V85.6928H110.786V99.0418H108.74V85.6928H105.32V83.5098H114.226Z" fill="#383838"/>
<path d="M123.945 83.5098V85.6928H118.131V89.4646H123.904V91.5628H118.111V96.9032H123.864V99.0418H116.045V83.5098H123.945Z" fill="#383838"/>
<path d="M136.78 86.8854C136.534 86.7075 136.311 86.5337 136.044 86.3558C135.596 86.0485 134.634 85.4058 133.158 85.4058C131.5 85.4058 129.803 86.2669 128.82 87.6575C127.858 89.024 127.777 90.6815 127.777 91.2757C127.777 91.6962 127.838 92.7756 128.291 93.8792C129.131 95.8642 131.157 97.1012 133.182 97.1012C134.634 97.1012 135.555 96.507 136.744 95.6459V98.2736C136.089 98.6051 134.965 99.2681 133.142 99.2681C132.24 99.2681 130.134 99.0902 128.19 97.3479C127.308 96.5312 125.691 94.611 125.691 91.2596C125.691 89.2504 126.306 87.3099 127.494 85.899C128.885 84.2455 131.096 83.2065 133.186 83.2065C134.537 83.2065 135.539 83.6472 136.809 84.201L136.78 86.8854Z" fill="#383838"/>
<path d="M141.894 83.5097V89.7314H148.363V83.4653H150.493V99.066H148.387V91.8296H141.878V99.0458H139.812V83.5138H141.894V83.5097Z" fill="#383838"/>
<path d="M164.958 83.5299H167.064V99.6603C165.427 97.8491 163.789 96.0623 162.132 94.2754C161.15 93.2162 160.187 92.157 159.225 91.0776C158.223 89.9538 157.26 88.8057 156.298 87.6373C156.339 88.3893 156.399 89.1371 156.42 89.8648C156.44 90.5278 156.44 91.1868 156.46 91.8498V99.0417H154.329V82.4708C156.355 84.6336 158.38 86.7964 160.369 88.9795C161.966 90.7461 163.543 92.533 165.099 94.2956C165.059 93.8105 164.998 93.3011 164.998 92.816C164.978 92.3753 164.978 91.9549 164.958 91.5142V83.5299Z" fill="#383838"/>
<path d="M171.673 85.7171C173.084 84.1081 175.093 83.2227 177.138 83.2227C179.552 83.2227 181.254 84.4598 181.929 85.0338C183.647 86.5135 184.69 88.8501 184.69 91.2798C184.69 91.8094 184.629 92.9777 184.096 94.3037C182.887 97.3923 180.166 99.2479 177.138 99.2479C174.705 99.2479 172.962 97.9664 172.287 97.3721C170.549 95.848 169.566 93.4871 169.627 91.017C169.684 89.0684 170.423 87.128 171.673 85.7171ZM172.857 94.8495C173.88 96.2402 175.497 97.0568 177.134 97.0568C177.749 97.0568 179.18 96.9476 180.51 95.844C181.8 94.7646 182.596 93.0626 182.596 91.2758C182.596 90.1721 182.289 89.2908 182.147 88.935C181.266 86.7722 179.281 85.4705 177.134 85.4705C175.926 85.4705 174.721 85.8909 173.779 86.6833C173.185 87.1684 171.814 88.6035 171.713 90.9645C171.648 92.3349 172.061 93.7701 172.857 94.8495Z" fill="#383838"/>
<path d="M189.25 83.5098V96.9679H193.649V99.066H187.16V83.5098H189.25Z" fill="#383838"/>
<path d="M195.961 85.7171C197.372 84.1081 199.381 83.2227 201.427 83.2227C203.84 83.2227 205.542 84.4598 206.217 85.0338C207.936 86.5135 208.979 88.8501 208.979 91.2798C208.979 91.8094 208.918 92.9777 208.384 94.3037C207.175 97.3923 204.455 99.2479 201.427 99.2479C198.993 99.2479 197.251 97.9664 196.576 97.3721C194.837 95.848 193.855 93.4871 193.915 91.017C193.976 89.0684 194.716 87.128 195.961 85.7171ZM197.15 94.8495C198.172 96.2402 199.79 97.0568 201.427 97.0568C202.041 97.0568 203.472 96.9476 204.802 95.844C206.092 94.7646 206.888 93.0626 206.888 91.2758C206.888 90.1721 206.581 89.2908 206.44 88.935C205.558 86.7722 203.573 85.4705 201.427 85.4705C200.218 85.4705 199.013 85.8909 198.071 86.6833C197.477 87.1684 196.107 88.6035 196.006 90.9645C195.941 92.3349 196.353 93.7701 197.15 94.8495Z" fill="#383838"/>
<path d="M222.877 87.8112C222.61 87.5241 222.344 87.2371 222.081 86.9743C221.592 86.5094 220.278 85.3209 218.313 85.3209C217.678 85.3209 216.369 85.4543 215.059 86.6226C213.195 88.2559 213.013 90.4632 213.013 91.3243C213.013 94.5463 215.245 97.2144 218.273 97.2144C218.867 97.2144 220.278 97.1053 221.527 95.848C222 95.3629 222.368 94.7888 222.59 94.1258C222.712 93.8186 222.756 93.6165 222.817 93.002H219.215V90.8189L225.129 90.8391C225.129 91.1706 225.169 91.9873 225.028 92.913C224.927 93.665 224.579 95.4518 223.205 97.0851C222.449 97.9664 220.973 99.3126 218.212 99.3126C217.371 99.3126 215.164 99.1792 213.361 97.461C211.784 95.937 210.927 93.665 210.927 91.3485C210.927 90.3783 211.069 88.1952 212.585 86.1415C214.57 83.4936 217.27 83.2065 218.378 83.2065C219.32 83.2065 221.183 83.3844 223.083 85.0177C223.512 85.3694 223.88 85.7898 224.272 86.2103L222.877 87.8112Z" fill="#383838"/>
<path d="M229.794 83.4653V98.9973H227.664V83.4653H229.794Z" fill="#383838"/>
<path d="M241.643 83.5098V85.6928H235.83V89.4646H241.603V91.5628H235.81V96.9032H241.563V99.0418H233.744V83.5098H241.643Z" fill="#383838"/>
<path d="M250.485 86.8854C250.363 86.6873 250.218 86.4892 250.076 86.2911C249.341 85.3411 248.645 85.1874 248.071 85.1874C247.764 85.2076 247.497 85.2521 247.21 85.3855C246.288 85.8262 246.127 86.8207 246.127 87.1724C246.127 88.2518 247.089 88.6965 247.295 88.8056L249.935 90.2408C250.343 90.4833 250.671 90.6814 251.039 90.9927C252.429 92.1853 252.595 93.6205 252.595 94.3684C252.595 94.7201 252.575 95.2739 252.308 96.0663C251.592 98.0755 249.935 99.3085 247.93 99.3085C247.356 99.3085 245.965 99.1994 244.736 98.0513C243.754 97.1255 243.386 96.0865 242.998 94.7848L244.942 94.3199C245.209 95.0718 245.411 95.4882 245.597 95.7995C246.131 96.6363 247.008 97.2548 248.011 97.2548C248.484 97.2548 248.892 97.1012 249.033 97.0325C249.915 96.6121 250.485 95.6418 250.485 94.6069C250.485 93.3941 249.769 92.6421 248.827 92.0923C247.845 91.5183 246.761 91.2312 245.82 90.5925C244.263 89.5333 244.016 88.0779 244.016 87.2815C244.016 86.8166 244.118 85.6483 244.918 84.678C245.347 84.1485 246.394 83.1984 248.132 83.1984C248.666 83.1984 249.891 83.3076 251.039 84.2778C251.572 84.7185 251.9 85.1834 252.308 85.7574L250.485 86.8854Z" fill="#383838"/>
<path d="M4.04269 103.97V104.892H2.48221V110.515H1.55239V104.892H0V103.97H4.04269Z" fill="#383838"/>
<path d="M11.0648 103.97V104.892H8.42498V106.48H11.0446V107.362H8.41285V109.609H11.0244V110.511H7.47495V103.97H11.0648Z" fill="#383838"/>
<path d="M19.4938 105.393C19.3806 105.32 19.2796 105.243 19.1583 105.17C18.9521 105.041 18.5155 104.77 17.8485 104.77C17.0965 104.77 16.3244 105.134 15.8756 105.72C15.439 106.298 15.4026 106.994 15.4026 107.244C15.4026 107.422 15.4309 107.875 15.6371 108.34C16.0171 109.177 16.9389 109.698 17.8606 109.698C18.5195 109.698 18.94 109.448 19.4777 109.084V110.191C19.1785 110.329 18.6691 110.608 17.8404 110.608C17.4321 110.608 16.4739 110.535 15.5926 109.799C15.1924 109.456 14.4566 108.647 14.4566 107.232C14.4566 106.387 14.7356 105.567 15.2733 104.972C15.9039 104.277 16.9106 103.836 17.8565 103.836C18.471 103.836 18.9238 104.022 19.5019 104.253L19.4938 105.393Z" fill="#383838"/>
<path d="M24.4219 103.97V106.589H27.3609V103.95H28.3271V110.523H27.369V107.475H24.4138V110.515H23.4759V103.97H24.4219Z" fill="#383838"/>
<path d="M37.504 103.982H38.4621V110.778C37.7183 110.014 36.9744 109.262 36.2225 108.51C35.7778 108.065 35.3412 107.616 34.9005 107.163C34.4437 106.69 34.0071 106.205 33.5705 105.712C33.5907 106.027 33.6149 106.343 33.6271 106.65C33.6352 106.929 33.6351 107.208 33.6473 107.487V110.519H32.6811V103.537C33.6028 104.447 34.5205 105.36 35.422 106.278C36.1457 107.022 36.8612 107.774 37.5687 108.518C37.5485 108.312 37.5242 108.101 37.5242 107.895C37.5161 107.709 37.5161 107.531 37.504 107.345V103.982Z" fill="#383838"/>
<path d="M43.1557 104.9C43.7985 104.22 44.7081 103.849 45.6379 103.849C46.7334 103.849 47.5056 104.37 47.8128 104.613C48.5931 105.235 49.0661 106.222 49.0661 107.244C49.0661 107.467 49.0378 107.96 48.7952 108.518C48.2454 109.82 47.0084 110.6 45.6338 110.6C44.5261 110.6 43.7378 110.062 43.4306 109.811C42.6423 109.169 42.1935 108.174 42.2218 107.135C42.2542 106.315 42.5897 105.494 43.1557 104.9ZM43.6934 108.748C44.1583 109.334 44.894 109.678 45.6379 109.678C45.9168 109.678 46.5677 109.63 47.1701 109.165C47.7563 108.708 48.1201 107.992 48.1201 107.24C48.1201 106.775 47.9826 106.403 47.9139 106.254C47.5137 105.344 46.6122 104.794 45.6379 104.794C45.0881 104.794 44.5423 104.972 44.1138 105.308C43.8429 105.514 43.2204 106.116 43.1759 107.111C43.1476 107.689 43.3336 108.295 43.6934 108.748Z" fill="#383838"/>
<path d="M53.7435 103.97V109.642H55.7405V110.523H52.7934V103.97H53.7435Z" fill="#383838"/>
<path d="M59.3951 104.9C60.0379 104.22 60.9475 103.849 61.8773 103.849C62.9729 103.849 63.7451 104.37 64.0523 104.613C64.8325 105.235 65.3055 106.222 65.3055 107.244C65.3055 107.467 65.2772 107.96 65.0347 108.518C64.4849 109.82 63.2478 110.6 61.8733 110.6C60.7656 110.6 59.9773 110.062 59.67 109.811C58.8817 109.169 58.433 108.174 58.4613 107.135C58.4936 106.315 58.8292 105.494 59.3951 104.9ZM59.9369 108.748C60.4018 109.334 61.1375 109.678 61.8814 109.678C62.1603 109.678 62.8112 109.63 63.4136 109.165C63.9997 108.708 64.3636 107.992 64.3636 107.24C64.3636 106.775 64.2261 106.403 64.1574 106.254C63.7572 105.344 62.8557 104.794 61.8814 104.794C61.3316 104.794 60.7858 104.972 60.3573 105.308C60.0864 105.514 59.4639 106.116 59.4194 107.111C59.387 107.689 59.573 108.295 59.9369 108.748Z" fill="#383838"/>
<path d="M74.2237 105.785C74.1024 105.664 73.9812 105.542 73.8599 105.433C73.6375 105.239 73.0432 104.738 72.1498 104.738C71.8628 104.738 71.2685 104.794 70.6702 105.288C69.8253 105.975 69.7404 106.905 69.7404 107.269C69.7404 108.627 70.7551 109.751 72.1296 109.751C72.4005 109.751 73.0392 109.706 73.6092 109.173C73.8235 108.966 73.9892 108.728 74.0943 108.449C74.1509 108.32 74.1671 108.235 74.1954 107.976H72.5581V107.054L75.2465 107.062C75.2465 107.204 75.2667 107.548 75.198 107.936C75.1535 108.251 74.9918 109.003 74.3692 109.694C74.0256 110.066 73.3545 110.632 72.1013 110.632C71.7213 110.632 70.7147 110.575 69.898 109.852C69.1825 109.209 68.7903 108.251 68.7903 107.277C68.7903 106.868 68.855 105.947 69.5423 105.081C70.4438 103.966 71.6728 103.844 72.1741 103.844C72.6026 103.844 73.4475 103.917 74.3127 104.608C74.5067 104.758 74.6765 104.936 74.8503 105.11L74.2237 105.785Z" fill="#383838"/>
<path d="M81.0114 106.646C81.262 106.209 81.5127 105.773 81.7633 105.352C81.9129 105.11 82.0503 104.867 82.1918 104.629C82.3212 104.414 82.4344 104.2 82.5435 103.978H83.6957C83.3319 104.58 82.9599 105.187 82.6082 105.789L81.4924 107.685V110.511H80.5707V107.685C80.3928 107.414 80.2271 107.135 80.0613 106.868C79.8269 106.46 79.5964 106.04 79.3539 105.631C79.0385 105.073 78.703 104.524 78.3796 103.966H79.5398L81.0114 106.646Z" fill="#383838"/>
<path d="M92.8564 104.9C93.4992 104.22 94.4088 103.849 95.3387 103.849C96.4342 103.849 97.2064 104.37 97.5136 104.613C98.2939 105.235 98.7669 106.222 98.7669 107.244C98.7669 107.467 98.7386 107.96 98.496 108.518C97.9462 109.82 96.7091 110.6 95.3346 110.6C94.2269 110.6 93.4386 110.062 93.1313 109.811C92.343 109.169 91.8943 108.174 91.9226 107.135C91.9549 106.315 92.2905 105.494 92.8564 104.9ZM93.3941 108.748C93.859 109.334 94.5948 109.678 95.3387 109.678C95.6176 109.678 96.2685 109.63 96.8708 109.165C97.457 108.708 97.8209 107.992 97.8209 107.24C97.8209 106.775 97.6834 106.403 97.6147 106.254C97.2145 105.344 96.3129 104.794 95.3387 104.794C94.7889 104.794 94.2431 104.972 93.8146 105.308C93.5437 105.514 92.9211 106.116 92.8767 107.111C92.8484 107.689 93.0343 108.295 93.3941 108.748Z" fill="#383838"/>
<path d="M107.321 103.982H108.279V110.778C107.535 110.014 106.792 109.262 106.04 108.51C105.595 108.065 105.158 107.616 104.718 107.163C104.261 106.69 103.824 106.205 103.388 105.712C103.408 106.027 103.432 106.343 103.444 106.65C103.452 106.929 103.452 107.208 103.464 107.487V110.519H102.498V103.537C103.42 104.447 104.338 105.36 105.239 106.278C105.963 107.022 106.678 107.774 107.386 108.518C107.366 108.312 107.341 108.101 107.341 107.895C107.333 107.709 107.333 107.531 107.321 107.345V103.982Z" fill="#383838"/>
<path d="M120.812 103.998L118.042 110.952C117.812 110.301 117.577 109.658 117.335 109.019C117.141 108.498 116.927 107.988 116.741 107.467C116.583 107.01 116.441 106.545 116.304 106.08C116.017 106.974 115.718 107.867 115.402 108.74C115.132 109.492 114.853 110.248 114.566 111L111.647 103.974L112.69 103.982C113.013 104.754 113.349 105.534 113.664 106.315C113.963 107.058 114.25 107.81 114.537 108.554C114.695 108.045 114.861 107.523 115.047 107.01C115.213 106.537 115.39 106.06 115.568 105.587C115.811 104.936 116.041 104.277 116.276 103.626C116.563 104.398 116.862 105.17 117.149 105.93C117.343 106.432 117.541 106.925 117.707 107.426C117.836 107.818 117.957 108.215 118.071 108.615C118.2 108.223 118.321 107.827 118.471 107.442C118.657 106.941 118.871 106.456 119.065 105.963C119.324 105.304 119.587 104.653 119.845 103.99H120.812V103.998Z" fill="#383838"/>
<path d="M128.937 110.523H127.907L127.248 108.934H124.422L123.67 110.515H122.639L125.93 103.582L128.937 110.523ZM124.81 108.089H126.892L125.889 105.785L124.81 108.089Z" fill="#383838"/>
<path d="M135.713 110.515L133.716 107.717H133.316V110.523H132.394V103.962H134.31C134.767 103.99 135.204 104.018 135.555 104.285C136.028 104.629 136.234 105.223 136.234 105.793C136.234 106.072 136.178 106.945 135.418 107.418C135.268 107.511 135.147 107.556 134.824 107.649C135.131 108.085 135.43 108.522 135.745 108.95C135.98 109.278 136.218 109.593 136.453 109.917C136.59 110.111 136.724 110.317 136.853 110.511H135.713V110.515ZM133.336 104.863V106.917H134.072C134.516 106.88 134.852 106.832 135.086 106.46C135.151 106.359 135.272 106.137 135.272 105.789C135.272 105.676 135.252 105.267 134.957 105.053C134.743 104.896 134.492 104.875 134.249 104.859H133.336V104.863Z" fill="#383838"/>
<path d="M140.419 110.487V103.962C141.757 103.925 142.084 103.954 142.844 104.018C143.422 104.131 143.616 104.196 143.895 104.334C144.946 104.871 145.456 105.979 145.456 107.139C145.456 107.519 145.391 108.562 144.647 109.427C144.275 109.872 143.903 110.058 143.709 110.143C143.309 110.329 142.921 110.402 142.007 110.487H140.419ZM141.34 109.621C141.563 109.621 141.785 109.63 142.011 109.613C142.913 109.577 143.677 109.306 144.166 108.526C144.304 108.32 144.575 107.831 144.575 107.139C144.575 106.032 143.867 105.445 143.544 105.235C142.885 104.819 142.113 104.843 141.34 104.883V109.621Z" fill="#383838"/>
<path d="M152.215 105.393C152.159 105.308 152.094 105.227 152.029 105.142C151.694 104.742 151.378 104.677 151.12 104.677C150.982 104.685 150.861 104.706 150.727 104.762C150.311 104.948 150.234 105.365 150.234 105.514C150.234 105.971 150.671 106.157 150.764 106.201L151.965 106.808C152.15 106.909 152.3 106.994 152.466 107.123C153.096 107.624 153.173 108.231 153.173 108.546C153.173 108.696 153.165 108.926 153.044 109.262C152.721 110.107 151.965 110.628 151.055 110.628C150.796 110.628 150.161 110.584 149.604 110.098C149.159 109.706 148.989 109.27 148.811 108.724L149.693 108.53C149.814 108.845 149.907 109.023 149.992 109.153C150.234 109.504 150.634 109.767 151.087 109.767C151.302 109.767 151.487 109.702 151.552 109.674C151.952 109.496 152.211 109.088 152.211 108.651C152.211 108.142 151.884 107.822 151.459 107.592C151.014 107.349 150.521 107.228 150.093 106.961C149.385 106.517 149.276 105.902 149.276 105.567C149.276 105.373 149.325 104.879 149.684 104.471C149.879 104.249 150.356 103.849 151.144 103.849C151.386 103.849 151.944 103.893 152.462 104.305C152.704 104.491 152.854 104.685 153.04 104.928L152.215 105.393Z" fill="#383838"/>
<path d="M167.715 110.523H166.684L166.025 108.934H163.199L162.447 110.515H161.416L164.707 103.582L167.715 110.523ZM163.587 108.089H165.669L164.667 105.785L163.587 108.089Z" fill="#383838"/>
<path d="M175.986 103.982H176.944V110.778C176.2 110.014 175.457 109.262 174.705 108.51C174.26 108.065 173.823 107.616 173.387 107.163C172.93 106.69 172.493 106.205 172.057 105.712C172.077 106.027 172.101 106.343 172.113 106.65C172.121 106.929 172.121 107.208 172.133 107.487V110.519H171.167V103.537C172.089 104.447 173.007 105.36 173.908 106.278C174.632 107.022 175.347 107.774 176.055 108.518C176.035 108.312 176.006 108.101 176.006 107.895C175.998 107.709 175.998 107.531 175.986 107.345V103.982Z" fill="#383838"/>
<path d="M181.335 110.487V103.962C182.673 103.925 183 103.954 183.76 104.018C184.338 104.131 184.532 104.196 184.811 104.334C185.862 104.871 186.372 105.979 186.372 107.139C186.372 107.519 186.307 108.562 185.563 109.427C185.191 109.872 184.819 110.058 184.625 110.143C184.225 110.329 183.837 110.402 182.923 110.487H181.335ZM182.252 109.621C182.475 109.621 182.697 109.63 182.923 109.613C183.825 109.577 184.589 109.306 185.078 108.526C185.216 108.32 185.486 107.831 185.486 107.139C185.486 106.032 184.779 105.445 184.456 105.235C183.797 104.819 183.024 104.843 182.252 104.883V109.621Z" fill="#383838"/>
<path d="M196.099 103.982V107.851C196.107 108 196.107 108.138 196.127 108.287C196.175 108.781 196.305 109.209 196.733 109.488C196.871 109.581 197.17 109.739 197.598 109.739C197.962 109.739 198.221 109.617 198.342 109.545C198.945 109.173 198.985 108.522 199.001 107.891V103.986H199.988V108.021C199.988 108.122 199.979 108.235 199.979 108.336C199.971 108.522 199.931 109.136 199.587 109.638C199.143 110.288 198.306 110.624 197.542 110.624C196.576 110.624 195.617 110.086 195.282 109.128C195.161 108.793 195.161 108.457 195.153 108.097V103.99H196.099V103.982Z" fill="#383838"/>
<path d="M205.191 107.847V110.507H204.269V103.982H205.441C205.728 103.982 206.221 103.99 206.529 104.038C206.779 104.067 207.293 104.152 207.689 104.697C207.931 105.033 208.041 105.47 208.041 105.878C208.041 105.991 208.041 106.193 207.968 106.456C207.883 106.755 207.616 107.442 206.816 107.721C206.5 107.822 206.185 107.835 205.841 107.851H205.191V107.847ZM205.199 106.937H205.777C206.27 106.917 206.65 106.889 206.929 106.5C207.095 106.258 207.123 106.015 207.123 105.906C207.123 105.765 207.074 105.385 206.731 105.142C206.48 104.964 206.181 104.948 205.874 104.936H205.195V106.937H205.199Z" fill="#383838"/>
<path d="M220.241 103.998L217.472 110.952C217.238 110.301 217.007 109.658 216.765 109.019C216.571 108.498 216.356 107.988 216.17 107.467C216.013 107.01 215.871 106.545 215.734 106.08C215.447 106.974 215.148 107.867 214.832 108.74C214.561 109.492 214.283 110.248 213.996 111L211.077 103.974L212.12 103.982C212.443 104.754 212.779 105.534 213.094 106.315C213.393 107.058 213.68 107.81 213.967 108.554C214.125 108.045 214.295 107.523 214.481 107.01C214.646 106.537 214.824 106.06 215.002 105.587C215.245 104.936 215.475 104.277 215.71 103.626C215.997 104.398 216.296 105.17 216.583 105.93C216.777 106.432 216.975 106.925 217.141 107.426C217.27 107.818 217.391 108.215 217.505 108.615C217.634 108.223 217.755 107.827 217.905 107.442C218.091 106.941 218.305 106.456 218.499 105.963C218.758 105.304 219.021 104.653 219.279 103.99H220.241V103.998Z" fill="#383838"/>
<path d="M228.367 110.523H227.336L226.677 108.934H223.852L223.1 110.515H222.069L225.359 103.582L228.367 110.523ZM224.24 108.089H226.322L225.319 105.785L224.24 108.089Z" fill="#383838"/>
<path d="M235.143 110.515L233.146 107.717H232.745V110.523H231.824V103.962H233.74C234.197 103.99 234.633 104.018 234.985 104.285C235.458 104.629 235.664 105.223 235.664 105.793C235.664 106.072 235.608 106.945 234.848 107.418C234.698 107.511 234.577 107.556 234.253 107.649C234.561 108.085 234.86 108.522 235.175 108.95C235.41 109.278 235.648 109.593 235.883 109.917C236.02 110.111 236.153 110.317 236.283 110.511H235.143V110.515ZM232.762 104.863V106.917H233.497C233.942 106.88 234.278 106.832 234.512 106.46C234.577 106.359 234.698 106.137 234.698 105.789C234.698 105.676 234.678 105.267 234.383 105.053C234.168 104.896 233.918 104.875 233.675 104.859H232.762V104.863Z" fill="#383838"/>
<path d="M239.848 110.487V103.962C241.187 103.925 241.514 103.954 242.274 104.018C242.852 104.131 243.046 104.196 243.325 104.334C244.376 104.871 244.886 105.979 244.886 107.139C244.886 107.519 244.821 108.562 244.077 109.427C243.705 109.872 243.333 110.058 243.139 110.143C242.739 110.329 242.351 110.402 241.437 110.487H239.848ZM240.766 109.621C240.988 109.621 241.211 109.63 241.437 109.613C242.339 109.577 243.103 109.306 243.592 108.526C243.729 108.32 244 107.831 244 107.139C244 106.032 243.293 105.445 242.969 105.235C242.31 104.819 241.538 104.843 240.766 104.883V109.621Z" fill="#383838"/>
<path d="M251.645 105.393C251.588 105.308 251.524 105.227 251.459 105.142C251.124 104.742 250.808 104.677 250.549 104.677C250.412 104.685 250.291 104.706 250.157 104.762C249.741 104.948 249.664 105.365 249.664 105.514C249.664 105.971 250.101 106.157 250.194 106.201L251.394 106.808C251.58 106.909 251.73 106.994 251.896 107.123C252.526 107.624 252.603 108.231 252.603 108.546C252.603 108.696 252.595 108.926 252.474 109.262C252.15 110.107 251.394 110.628 250.485 110.628C250.226 110.628 249.591 110.584 249.033 110.098C248.589 109.706 248.419 109.27 248.241 108.724L249.122 108.53C249.244 108.845 249.337 109.023 249.422 109.153C249.664 109.504 250.064 109.767 250.517 109.767C250.731 109.767 250.917 109.702 250.982 109.674C251.382 109.496 251.641 109.088 251.641 108.651C251.641 108.142 251.318 107.822 250.889 107.592C250.444 107.349 249.951 107.228 249.523 106.961C248.815 106.517 248.706 105.902 248.706 105.567C248.706 105.373 248.755 104.879 249.114 104.471C249.308 104.249 249.785 103.849 250.574 103.849C250.816 103.849 251.374 103.893 251.892 104.305C252.134 104.491 252.284 104.685 252.47 104.928L251.645 105.393Z" fill="#383838"/>
</svg>
